<svg xmlns="http://www.w3.org/2000/svg" viewBox="0 0 1027 1024" width="300" height="300" style="&#10;">
  <g style="fill:rgb(0, 0, 0);stroke:rgb(255, 255, 255);color:rgb(255, 255, 255);stroke-width:10px;stroke-linecap:butt;stroke-linejoin:miter;opacity:1;font-family:&quot;Anthropic Sans&quot;, -apple-system, BlinkMacSystemFont, &quot;Segoe UI&quot;, sans-serif;font-size:16px;font-weight:400;text-anchor:start;dominant-baseline:auto">
    <path d="M 103.00 402.00 L 98.00 418.00 L 98.00 894.00 L 104.00 911.00 L 117.00 923.00 L 128.00 927.00 L 895.00 927.00 L 908.00 922.00 L 919.00 911.00 L 925.00 896.00 L 925.00 528.00 L 923.00 520.00 L 917.00 509.00 L 906.00 500.00 L 894.00 496.00 L 394.00 496.00 L 388.00 493.00 L 380.00 484.00 L 335.00 392.00 L 332.00 388.00 L 325.00 384.00 L 133.00 383.00 L 123.00 385.00 L 115.00 389.00 Z" style="fill:#212528;stroke:rgb(255, 255, 255);color:rgb(255, 255, 255);stroke-width:10px;stroke-linecap:butt;stroke-linejoin:miter;opacity:1;font-family:&quot;Anthropic Sans&quot;, -apple-system, BlinkMacSystemFont, &quot;Segoe UI&quot;, sans-serif;font-size:16px;font-weight:400;text-anchor:start;dominant-baseline:auto"/>
    <path stroke="none" d="M 524.00 627.00 L 534.00 626.00 L 540.00 628.00 L 548.00 636.00 L 587.00 741.00 L 627.00 635.00 L 637.00 627.00 L 648.00 626.00 L 656.00 630.00 L 663.00 640.00 L 663.00 651.00 L 607.00 801.00 L 604.00 807.00 L 594.00 815.00 L 583.00 816.00 L 571.00 808.00 L 511.00 649.00 L 511.00 642.00 L 514.00 635.00 Z" style="fill:rgb(255, 255, 255);stroke:none;color:rgb(255, 255, 255);stroke-width:10px;stroke-linecap:butt;stroke-linejoin:miter;opacity:1;font-family:&quot;Anthropic Sans&quot;, -apple-system, BlinkMacSystemFont, &quot;Segoe UI&quot;, sans-serif;font-size:16px;font-weight:400;text-anchor:start;dominant-baseline:auto"/>
    <path stroke="none" d="M 410.00 626.00 L 443.00 626.00 L 458.00 630.00 L 468.00 635.00 L 482.00 648.00 L 493.00 671.00 L 493.00 690.00 L 486.00 699.00 L 478.00 703.00 L 467.00 702.00 L 459.00 696.00 L 455.00 689.00 L 454.00 678.00 L 451.00 672.00 L 442.00 666.00 L 415.00 665.00 L 406.00 669.00 L 401.00 676.00 L 400.00 762.00 L 406.00 773.00 L 413.00 776.00 L 441.00 776.00 L 446.00 774.00 L 453.00 766.00 L 455.00 753.00 L 458.00 747.00 L 470.00 739.00 L 479.00 739.00 L 485.00 742.00 L 490.00 747.00 L 494.00 755.00 L 492.00 775.00 L 482.00 794.00 L 465.00 809.00 L 444.00 816.00 L 412.00 816.00 L 402.00 814.00 L 388.00 808.00 L 372.00 794.00 L 365.00 782.00 L 361.00 769.00 L 360.00 680.00 L 364.00 662.00 L 370.00 651.00 L 381.00 639.00 L 396.00 630.00 Z" style="fill:rgb(255, 255, 255);stroke:none;color:rgb(255, 255, 255);stroke-width:10px;stroke-linecap:butt;stroke-linejoin:miter;opacity:1;font-family:&quot;Anthropic Sans&quot;, -apple-system, BlinkMacSystemFont, &quot;Segoe UI&quot;, sans-serif;font-size:16px;font-weight:400;text-anchor:start;dominant-baseline:auto"/>
    <path stroke="none" d="M 134.00 437.00 L 138.00 427.00 L 150.00 419.00 L 309.00 419.00 L 315.00 422.00 L 322.00 429.00 L 324.00 434.00 L 324.00 445.00 L 315.00 456.00 L 308.00 459.00 L 152.00 459.00 L 144.00 456.00 L 137.00 449.00 Z" style="fill:rgb(255, 255, 255);stroke:none;color:rgb(255, 255, 255);stroke-width:10px;stroke-linecap:butt;stroke-linejoin:miter;opacity:1;font-family:&quot;Anthropic Sans&quot;, -apple-system, BlinkMacSystemFont, &quot;Segoe UI&quot;, sans-serif;font-size:16px;font-weight:400;text-anchor:start;dominant-baseline:auto"/>
    <path d="M 795.00 139.00 L 795.00 457.00 L 831.00 457.00 L 831.00 139.00 Z" style="fill:#212528;stroke:rgb(255, 255, 255);color:rgb(255, 255, 255);stroke-width:5px;stroke-linecap:butt;stroke-linejoin:miter;opacity:1;font-family:&quot;Anthropic Sans&quot;, -apple-system, BlinkMacSystemFont, &quot;Segoe UI&quot;, sans-serif;font-size:16px;font-weight:400;text-anchor:start;dominant-baseline:auto"/>
    <path d="M 230.00 101.00 L 230.00 344.00 L 328.00 344.00 L 339.00 347.00 L 352.00 354.00 L 362.00 363.00 L 369.00 373.00 L 411.00 457.00 L 755.00 457.00 L 755.00 101.00 Z" style="fill:#212528;stroke:rgb(255, 255, 255);color:rgb(255, 255, 255);stroke-width:10px;stroke-linecap:butt;stroke-linejoin:miter;opacity:1;font-family:&quot;Anthropic Sans&quot;, -apple-system, BlinkMacSystemFont, &quot;Segoe UI&quot;, sans-serif;font-size:16px;font-weight:400;text-anchor:start;dominant-baseline:auto"/>
    <path stroke="none" d="M 436.00 397.00 L 439.00 390.00 L 444.00 385.00 L 455.00 381.00 L 683.00 381.00 L 690.00 383.00 L 697.00 389.00 L 701.00 397.00 L 701.00 405.00 L 698.00 412.00 L 686.00 421.00 L 451.00 421.00 L 446.00 419.00 L 438.00 411.00 Z" style="fill:rgb(255, 255, 255);stroke:none;color:rgb(255, 255, 255);stroke-width:10px;stroke-linecap:butt;stroke-linejoin:miter;opacity:1;font-family:&quot;Anthropic Sans&quot;, -apple-system, BlinkMacSystemFont, &quot;Segoe UI&quot;, sans-serif;font-size:16px;font-weight:400;text-anchor:start;dominant-baseline:auto"/>
    <path stroke="none" d="M 379.00 323.00 L 383.00 314.00 L 390.00 308.00 L 396.00 306.00 L 685.00 306.00 L 692.00 309.00 L 698.00 315.00 L 701.00 322.00 L 701.00 331.00 L 692.00 343.00 L 683.00 346.00 L 397.00 346.00 L 390.00 344.00 L 383.00 338.00 L 380.00 333.00 Z" style="fill:rgb(255, 255, 255);stroke:none;color:rgb(255, 255, 255);stroke-width:10px;stroke-linecap:butt;stroke-linejoin:miter;opacity:1;font-family:&quot;Anthropic Sans&quot;, -apple-system, BlinkMacSystemFont, &quot;Segoe UI&quot;, sans-serif;font-size:16px;font-weight:400;text-anchor:start;dominant-baseline:auto"/>
    <path stroke="none" d="M 285.00 246.00 L 288.00 240.00 L 300.00 231.00 L 686.00 231.00 L 692.00 234.00 L 699.00 242.00 L 701.00 247.00 L 701.00 255.00 L 698.00 262.00 L 693.00 267.00 L 683.00 271.00 L 304.00 271.00 L 296.00 269.00 L 288.00 262.00 L 285.00 256.00 Z" style="fill:rgb(255, 255, 255);stroke:none;color:rgb(255, 255, 255);stroke-width:10px;stroke-linecap:butt;stroke-linejoin:miter;opacity:1;font-family:&quot;Anthropic Sans&quot;, -apple-system, BlinkMacSystemFont, &quot;Segoe UI&quot;, sans-serif;font-size:16px;font-weight:400;text-anchor:start;dominant-baseline:auto"/>
    <path stroke="none" d="M 285.00 171.00 L 288.00 165.00 L 295.00 158.00 L 300.00 156.00 L 686.00 156.00 L 692.00 159.00 L 699.00 167.00 L 701.00 172.00 L 701.00 180.00 L 697.00 188.00 L 687.00 195.00 L 299.00 195.00 L 292.00 191.00 L 287.00 185.00 L 285.00 180.00 Z" style="fill:rgb(255, 255, 255);stroke:none;color:rgb(255, 255, 255);stroke-width:10px;stroke-linecap:butt;stroke-linejoin:miter;opacity:1;font-family:&quot;Anthropic Sans&quot;, -apple-system, BlinkMacSystemFont, &quot;Segoe UI&quot;, sans-serif;font-size:16px;font-weight:400;text-anchor:start;dominant-baseline:auto"/>
  </g>
</svg>